<mxfile host="app.diagrams.net" modified="2023-11-16T01:59:55.061Z" agent="Mozilla/5.0 (Windows NT 10.0; Win64; x64) AppleWebKit/537.36 (KHTML, like Gecko) Chrome/119.0.0.0 Safari/537.36" etag="ShLN7CXuk_ohUYKT-qXa" version="22.1.1" type="device">
  <diagram name="Trang-1" id="wEUfEaezEqYi99gWGH9I">
    <mxGraphModel dx="880" dy="484" grid="1" gridSize="10" guides="1" tooltips="1" connect="1" arrows="1" fold="1" page="1" pageScale="1" pageWidth="827" pageHeight="1169" math="0" shadow="0">
      <root>
        <mxCell id="0" />
        <mxCell id="1" parent="0" />
        <mxCell id="2wln7IBW2dHHf3Lz-MvF-1" value="&lt;font style=&quot;vertical-align: inherit;&quot;&gt;&lt;font style=&quot;vertical-align: inherit;&quot;&gt;Start&lt;/font&gt;&lt;/font&gt;" style="ellipse;whiteSpace=wrap;html=1;" vertex="1" parent="1">
          <mxGeometry x="340" width="120" height="80" as="geometry" />
        </mxCell>
        <mxCell id="2wln7IBW2dHHf3Lz-MvF-3" style="edgeStyle=orthogonalEdgeStyle;rounded=0;orthogonalLoop=1;jettySize=auto;html=1;exitX=0.5;exitY=1;exitDx=0;exitDy=0;entryX=0.5;entryY=0;entryDx=0;entryDy=0;entryPerimeter=0;" edge="1" parent="1" source="2wln7IBW2dHHf3Lz-MvF-1">
          <mxGeometry relative="1" as="geometry">
            <mxPoint x="400" y="120" as="targetPoint" />
          </mxGeometry>
        </mxCell>
        <mxCell id="2wln7IBW2dHHf3Lz-MvF-8" style="edgeStyle=orthogonalEdgeStyle;rounded=0;orthogonalLoop=1;jettySize=auto;html=1;exitX=0.5;exitY=1;exitDx=0;exitDy=0;" edge="1" parent="1" source="2wln7IBW2dHHf3Lz-MvF-6" target="2wln7IBW2dHHf3Lz-MvF-7">
          <mxGeometry relative="1" as="geometry" />
        </mxCell>
        <mxCell id="2wln7IBW2dHHf3Lz-MvF-6" value="numbers[100], currentIndex" style="rounded=0;whiteSpace=wrap;html=1;" vertex="1" parent="1">
          <mxGeometry x="340" y="120" width="120" height="60" as="geometry" />
        </mxCell>
        <mxCell id="2wln7IBW2dHHf3Lz-MvF-11" style="edgeStyle=orthogonalEdgeStyle;rounded=0;orthogonalLoop=1;jettySize=auto;html=1;exitX=0.5;exitY=1;exitDx=0;exitDy=0;" edge="1" parent="1" source="2wln7IBW2dHHf3Lz-MvF-7" target="2wln7IBW2dHHf3Lz-MvF-10">
          <mxGeometry relative="1" as="geometry" />
        </mxCell>
        <mxCell id="2wln7IBW2dHHf3Lz-MvF-7" value="nhap so phan tu muon them la n" style="shape=parallelogram;perimeter=parallelogramPerimeter;whiteSpace=wrap;html=1;fixedSize=1;" vertex="1" parent="1">
          <mxGeometry x="340" y="250" width="120" height="60" as="geometry" />
        </mxCell>
        <mxCell id="2wln7IBW2dHHf3Lz-MvF-13" style="edgeStyle=orthogonalEdgeStyle;rounded=0;orthogonalLoop=1;jettySize=auto;html=1;exitX=0.5;exitY=1;exitDx=0;exitDy=0;" edge="1" parent="1" source="2wln7IBW2dHHf3Lz-MvF-10" target="2wln7IBW2dHHf3Lz-MvF-12">
          <mxGeometry relative="1" as="geometry" />
        </mxCell>
        <mxCell id="2wln7IBW2dHHf3Lz-MvF-10" value="i=0" style="rounded=0;whiteSpace=wrap;html=1;" vertex="1" parent="1">
          <mxGeometry x="340" y="370" width="120" height="60" as="geometry" />
        </mxCell>
        <mxCell id="2wln7IBW2dHHf3Lz-MvF-15" style="edgeStyle=orthogonalEdgeStyle;rounded=0;orthogonalLoop=1;jettySize=auto;html=1;exitX=0.5;exitY=1;exitDx=0;exitDy=0;entryX=0.5;entryY=0;entryDx=0;entryDy=0;" edge="1" parent="1" source="2wln7IBW2dHHf3Lz-MvF-12" target="2wln7IBW2dHHf3Lz-MvF-14">
          <mxGeometry relative="1" as="geometry" />
        </mxCell>
        <mxCell id="2wln7IBW2dHHf3Lz-MvF-19" value="true" style="edgeLabel;html=1;align=center;verticalAlign=middle;resizable=0;points=[];" vertex="1" connectable="0" parent="2wln7IBW2dHHf3Lz-MvF-15">
          <mxGeometry x="-0.1" relative="1" as="geometry">
            <mxPoint as="offset" />
          </mxGeometry>
        </mxCell>
        <mxCell id="2wln7IBW2dHHf3Lz-MvF-22" style="edgeStyle=orthogonalEdgeStyle;rounded=0;orthogonalLoop=1;jettySize=auto;html=1;exitX=1;exitY=0.5;exitDx=0;exitDy=0;" edge="1" parent="1" source="2wln7IBW2dHHf3Lz-MvF-12" target="2wln7IBW2dHHf3Lz-MvF-21">
          <mxGeometry relative="1" as="geometry" />
        </mxCell>
        <mxCell id="2wln7IBW2dHHf3Lz-MvF-12" value="i&amp;lt;n" style="rhombus;whiteSpace=wrap;html=1;" vertex="1" parent="1">
          <mxGeometry x="360" y="490" width="80" height="80" as="geometry" />
        </mxCell>
        <mxCell id="2wln7IBW2dHHf3Lz-MvF-17" style="edgeStyle=orthogonalEdgeStyle;rounded=0;orthogonalLoop=1;jettySize=auto;html=1;exitX=0.5;exitY=1;exitDx=0;exitDy=0;" edge="1" parent="1" source="2wln7IBW2dHHf3Lz-MvF-14" target="2wln7IBW2dHHf3Lz-MvF-16">
          <mxGeometry relative="1" as="geometry" />
        </mxCell>
        <mxCell id="2wln7IBW2dHHf3Lz-MvF-14" value="numbers[currentIndex]" style="shape=parallelogram;perimeter=parallelogramPerimeter;whiteSpace=wrap;html=1;fixedSize=1;" vertex="1" parent="1">
          <mxGeometry x="340" y="630" width="120" height="60" as="geometry" />
        </mxCell>
        <mxCell id="2wln7IBW2dHHf3Lz-MvF-18" style="edgeStyle=orthogonalEdgeStyle;rounded=0;orthogonalLoop=1;jettySize=auto;html=1;exitX=0;exitY=0.5;exitDx=0;exitDy=0;entryX=0;entryY=0.5;entryDx=0;entryDy=0;" edge="1" parent="1" source="2wln7IBW2dHHf3Lz-MvF-16" target="2wln7IBW2dHHf3Lz-MvF-12">
          <mxGeometry relative="1" as="geometry">
            <Array as="points">
              <mxPoint x="280" y="780" />
              <mxPoint x="280" y="530" />
            </Array>
          </mxGeometry>
        </mxCell>
        <mxCell id="2wln7IBW2dHHf3Lz-MvF-16" value="i++, curentIndex++" style="rounded=0;whiteSpace=wrap;html=1;" vertex="1" parent="1">
          <mxGeometry x="340" y="750" width="120" height="60" as="geometry" />
        </mxCell>
        <mxCell id="2wln7IBW2dHHf3Lz-MvF-24" style="edgeStyle=orthogonalEdgeStyle;rounded=0;orthogonalLoop=1;jettySize=auto;html=1;exitX=0.5;exitY=1;exitDx=0;exitDy=0;entryX=0.5;entryY=0;entryDx=0;entryDy=0;" edge="1" parent="1" source="2wln7IBW2dHHf3Lz-MvF-21" target="2wln7IBW2dHHf3Lz-MvF-23">
          <mxGeometry relative="1" as="geometry" />
        </mxCell>
        <mxCell id="2wln7IBW2dHHf3Lz-MvF-21" value="addValue,addIndex" style="shape=parallelogram;perimeter=parallelogramPerimeter;whiteSpace=wrap;html=1;fixedSize=1;" vertex="1" parent="1">
          <mxGeometry x="580" y="500" width="120" height="60" as="geometry" />
        </mxCell>
        <mxCell id="2wln7IBW2dHHf3Lz-MvF-23" value="i=0" style="rounded=0;whiteSpace=wrap;html=1;" vertex="1" parent="1">
          <mxGeometry x="580" y="630" width="120" height="60" as="geometry" />
        </mxCell>
      </root>
    </mxGraphModel>
  </diagram>
</mxfile>
